<svg xmlns="http://www.w3.org/2000/svg" viewBox="0 0 512 512" width="100%" height="100%">
  <defs>
    <pattern id="grid" width="24" height="24" patternUnits="userSpaceOnUse">
      <path d="M 24 0 L 0 0 0 24" fill="none" stroke="#e4decb" stroke-width="1"/>
    </pattern>
  </defs>
  <!-- Background Canvas -->
  <rect width="512" height="512" fill="#FAF7EE"/>
  <rect width="512" height="512" fill="url(#grid)"/>
  
  <!-- Outer Window Shadow -->
  <rect x="54" y="54" width="414" height="414" rx="36" fill="#18181b"/>
  
  <!-- Outer Window Frame -->
  <rect x="44" y="44" width="414" height="414" rx="36" fill="#FAF7EE" stroke="#18181b" stroke-width="12"/>
  
  <!-- Window Header Bar (Teal) -->
  <path d="M 44 80 C 44 56, 56 44, 80 44 L 422 44 C 446 44, 458 56, 458 80 L 458 130 L 44 130 Z" fill="#2EC4B6" stroke="#18181b" stroke-width="12"/>
  
  <!-- Window Controls -->
  <circle cx="90" cy="87" r="14" fill="#FAF7EE" stroke="#18181b" stroke-width="6"/>
  <circle cx="130" cy="87" r="14" fill="#F6AE2D" stroke="#18181b" stroke-width="6"/>
  <circle cx="170" cy="87" r="14" fill="#FF70A6" stroke="#18181b" stroke-width="6"/>
  
  <!-- Address Bar Pill -->
  <rect x="210" y="67" width="220" height="40" rx="12" fill="#FAF7EE" stroke="#18181b" stroke-width="6"/>
  <text x="225" y="93" font-family="monospace" font-weight="bold" font-size="18" fill="#18181b">workstation.local</text>
  
  <!-- Inner Workstation Icon Box (Yellow Neo-Brutalist) -->
  <rect x="136" y="196" width="240" height="190" rx="24" fill="#F6AE2D" stroke="#18181b" stroke-width="10"/>
  <rect x="146" y="206" width="240" height="190" rx="24" fill="none" stroke="#18181b" stroke-width="6" opacity="0.3"/>
  
  <!-- Inner Screen & WS text -->
  <rect x="160" y="220" width="192" height="110" rx="14" fill="#0f172a" stroke="#18181b" stroke-width="6"/>
  <text x="256" y="295" text-anchor="middle" font-family="monospace" font-weight="900" font-size="70" fill="#2EC4B6" letter-spacing="4">WS</text>
  
  <!-- Status LED -->
  <circle cx="340" cy="235" r="7" fill="#4ade80" stroke="#0f172a" stroke-width="3"/>
  
  <!-- Keyboard / Base details -->
  <rect x="175" y="348" width="162" height="16" rx="6" fill="#FAF7EE" stroke="#18181b" stroke-width="5"/>
  <circle cx="210" cy="415" r="8" fill="#FF70A6" stroke="#18181b" stroke-width="4"/>
  <circle cx="256" cy="415" r="8" fill="#2EC4B6" stroke="#18181b" stroke-width="4"/>
  <circle cx="302" cy="415" r="8" fill="#F6AE2D" stroke="#18181b" stroke-width="4"/>
</svg>